<svg xmlns="http://www.w3.org/2000/svg" xmlns:xlink="http://www.w3.org/1999/xlink" width="44" height="44" viewBox="0 0 44 44">
  <metadata><?xpacket begin="﻿" id="W5M0MpCehiHzreSzNTczkc9d"?>
<x:xmpmeta xmlns:x="adobe:ns:meta/" x:xmptk="Adobe XMP Core 5.6-c142 79.160924, 2017/07/13-01:06:39        ">
   <rdf:RDF xmlns:rdf="http://www.w3.org/1999/02/22-rdf-syntax-ns#">
      <rdf:Description rdf:about=""/>
   </rdf:RDF>
</x:xmpmeta>
                                                                                                    
                                                                                                    
                                                                                                    
                                                                                                    
                                                                                                    
                                                                                                    
                                                                                                    
                                                                                                    
                                                                                                    
                                                                                                    
                                                                                                    
                                                                                                    
                                                                                                    
                                                                                                    
                                                                                                    
                                                                                                    
                                                                                                    
                                                                                                    
                                                                                                    
                                                                                                    
                           
<?xpacket end="w"?></metadata>
<defs>
    <style>
      .cls-1 {
        fill-rule: evenodd;
        filter: url(#filter);
      }
    </style>
    <filter id="filter" x="540" y="4878" width="44" height="44" filterUnits="userSpaceOnUse">
      <feFlood result="flood" flood-color="#c7b299"/>
      <feComposite result="composite" operator="in" in2="SourceGraphic"/>
      <feBlend result="blend" in2="SourceGraphic"/>
    </filter>
  </defs>
  <path id="icon" class="cls-1" d="M559.937,4908.25c5.688,0,10.313-5.63,10.313-12.55s-4.625-12.54-10.313-12.54a9.441,9.441,0,0,0-7.394,3.78,14.037,14.037,0,0,0-2.918,8.76C549.625,4902.62,554.25,4908.25,559.937,4908.25Zm0-22.34c4.17,0,7.563,4.39,7.563,9.79s-3.393,9.8-7.563,9.8-7.562-4.39-7.565-9.8S555.765,4885.91,559.937,4885.91Zm8.661,20.96a1.375,1.375,0,1,0,0,2.75,8.541,8.541,0,0,1,8.527,8.53,1.1,1.1,0,0,1-1.1,1.1H543.848a1.1,1.1,0,0,1-1.1-1.1,8.539,8.539,0,0,1,8.524-8.53,1.375,1.375,0,1,0,0-2.75A11.289,11.289,0,0,0,540,4918.15a3.856,3.856,0,0,0,3.848,3.85h32.176a3.857,3.857,0,0,0,3.851-3.85A11.292,11.292,0,0,0,568.6,4906.87Zm-7.655-25.24a6.084,6.084,0,0,1,3.119-.88c4.17,0,7.563,4.4,7.563,9.8a12.42,12.42,0,0,1-.32,2.83,1.379,1.379,0,0,0,1.024,1.65,1.688,1.688,0,0,0,.315.03,1.369,1.369,0,0,0,1.338-1.06,15.2,15.2,0,0,0,.393-3.45c0-6.92-4.625-12.55-10.313-12.55a8.936,8.936,0,0,0-4.518,1.26A1.376,1.376,0,0,0,560.943,4881.63ZM573,4901.37a1.375,1.375,0,1,0,0,2.75,8.386,8.386,0,0,1,8.25,8.62,1.068,1.068,0,0,1-.094.45,1.38,1.38,0,0,0,.7,1.82,1.4,1.4,0,0,0,1.816-.7,3.878,3.878,0,0,0,.33-1.57A11.142,11.142,0,0,0,573,4901.37Z" transform="translate(-540 -4878)"/>
</svg>
