<svg xmlns="http://www.w3.org/2000/svg" xmlns:xlink="http://www.w3.org/1999/xlink" width="48" height="44" viewBox="0 0 48 44">
  <metadata><?xpacket begin="﻿" id="W5M0MpCehiHzreSzNTczkc9d"?>
<x:xmpmeta xmlns:x="adobe:ns:meta/" x:xmptk="Adobe XMP Core 5.6-c142 79.160924, 2017/07/13-01:06:39        ">
   <rdf:RDF xmlns:rdf="http://www.w3.org/1999/02/22-rdf-syntax-ns#">
      <rdf:Description rdf:about=""/>
   </rdf:RDF>
</x:xmpmeta>
                                                                                                    
                                                                                                    
                                                                                                    
                                                                                                    
                                                                                                    
                                                                                                    
                                                                                                    
                                                                                                    
                                                                                                    
                                                                                                    
                                                                                                    
                                                                                                    
                                                                                                    
                                                                                                    
                                                                                                    
                                                                                                    
                                                                                                    
                                                                                                    
                                                                                                    
                                                                                                    
                           
<?xpacket end="w"?></metadata>
<defs>
    <style>
      .cls-1 {
        fill-rule: evenodd;
        filter: url(#filter);
      }
    </style>
    <filter id="filter" x="736" y="4878" width="48" height="44" filterUnits="userSpaceOnUse">
      <feFlood result="flood" flood-color="#c7b299"/>
      <feComposite result="composite" operator="in" in2="SourceGraphic"/>
      <feBlend result="blend" in2="SourceGraphic"/>
    </filter>
  </defs>
  <path id="icon" class="cls-1" d="M782.043,4920.75a1.242,1.242,0,0,1-1.234,1.25H737.234a1.25,1.25,0,0,1,0-2.5h43.575A1.242,1.242,0,0,1,782.043,4920.75Zm-24.274-20.54a1.215,1.215,0,0,0,1.744-.06,1.266,1.266,0,0,0-.06-1.77c-2.116-2-1.663-6.07.155-8.37,2.467-3.12,3.01-8.68-.155-11.67a1.219,1.219,0,0,0-1.744.06,1.266,1.266,0,0,0,.06,1.77c1.9,1.79,1.858,5.82-.087,8.28a10.169,10.169,0,0,0-2.1,5.95A7.571,7.571,0,0,0,757.769,4900.21Zm26.231-2.6v2.4a6.205,6.205,0,0,1-6.154,6.24h-2.755a13.513,13.513,0,0,1-12.686,9.05h-6.766a13.579,13.579,0,0,1-13.476-13.66v-12.41a1.242,1.242,0,0,1,1.234-1.25h7.915c1.606-2.48,1.535-6.13-.249-7.81a1.266,1.266,0,0,1-.06-1.77,1.219,1.219,0,0,1,1.744-.06c3.164,2.99,2.621,8.55.155,11.67-1.819,2.3-2.272,6.37-.155,8.37a1.266,1.266,0,0,1,.06,1.77,1.219,1.219,0,0,1-1.744.06,7.571,7.571,0,0,1-2.184-5.81,10.44,10.44,0,0,1,.881-3.92h-5.13v11.16a11.094,11.094,0,0,0,11.009,11.16h6.766a11.093,11.093,0,0,0,11.008-11.16v-11.16h-9.278a1.25,1.25,0,0,1,0-2.5h10.512a1.242,1.242,0,0,1,1.234,1.25v2.15h1.965A6.2,6.2,0,0,1,784,4897.61Zm-2.468,0a3.711,3.711,0,0,0-3.686-3.73h-1.965v9.87h1.965a3.719,3.719,0,0,0,3.686-3.74v-2.4Z" transform="translate(-736 -4878)"/>
</svg>
