<svg xmlns="http://www.w3.org/2000/svg" xmlns:xlink="http://www.w3.org/1999/xlink" width="44" height="44" viewBox="0 0 44 44">
  <metadata><?xpacket begin="﻿" id="W5M0MpCehiHzreSzNTczkc9d"?>
<x:xmpmeta xmlns:x="adobe:ns:meta/" x:xmptk="Adobe XMP Core 5.6-c142 79.160924, 2017/07/13-01:06:39        ">
   <rdf:RDF xmlns:rdf="http://www.w3.org/1999/02/22-rdf-syntax-ns#">
      <rdf:Description rdf:about=""/>
   </rdf:RDF>
</x:xmpmeta>
                                                                                                    
                                                                                                    
                                                                                                    
                                                                                                    
                                                                                                    
                                                                                                    
                                                                                                    
                                                                                                    
                                                                                                    
                                                                                                    
                                                                                                    
                                                                                                    
                                                                                                    
                                                                                                    
                                                                                                    
                                                                                                    
                                                                                                    
                                                                                                    
                                                                                                    
                                                                                                    
                           
<?xpacket end="w"?></metadata>
<defs>
    <style>
      .cls-1 {
        fill-rule: evenodd;
        filter: url(#filter);
      }
    </style>
    <filter id="filter" x="1139" y="4878" width="44" height="44" filterUnits="userSpaceOnUse">
      <feFlood result="flood" flood-color="#c7b299"/>
      <feComposite result="composite" operator="in" in2="SourceGraphic"/>
      <feBlend result="blend" in2="SourceGraphic"/>
    </filter>
  </defs>
  <path id="icon" class="cls-1" d="M1169.25,4878c-0.42,0-.85.03-1.27,0.06l-0.46.06c-0.25.03-.51,0.07-0.76,0.12-0.19.03-.38,0.07-0.56,0.11-0.21.05-.42,0.11-0.63,0.16s-0.39.11-.59,0.18a5.442,5.442,0,0,0-.52.19,12.305,12.305,0,0,0-1.34.58,2.1,2.1,0,0,0-.26.13c-0.23.12-.45,0.25-0.68,0.39-0.12.07-.24,0.14-0.36,0.22-0.22.14-.42,0.28-0.63,0.43a2.141,2.141,0,0,1-.19.13,13.74,13.74,0,0,0-22,10.99c0,12.44,8,23.7,21.41,30.11a1.313,1.313,0,0,0,1.18,0c13.41-6.41,21.41-17.67,21.41-30.11A13.768,13.768,0,0,0,1169.25,4878Zm-8.25,41.1c-12.07-5.99-19.25-16.17-19.25-27.35a10.974,10.974,0,0,1,17.19-9.07,13.728,13.728,0,0,0-3.44,9.07,1.375,1.375,0,0,0,2.75,0,11.007,11.007,0,0,1,3.72-8.23c0.21-.19.43-0.36,0.66-0.53l0.15-.12c0.22-.16.44-0.31,0.67-0.45,0.06-.04.13-0.08,0.19-0.12,0.22-.13.45-0.25,0.68-0.37l0.24-.12c0.22-.1.45-0.2,0.67-0.29,0.1-.04.2-0.07,0.31-0.11,0.21-.08.43-0.15,0.64-0.21,0.14-.04.26-0.08,0.4-0.11,0.2-.05.39-0.1,0.59-0.14,0.18-.03.37-0.05,0.55-0.08,0.15-.02.31-0.05,0.47-0.07,0.35-.03.7-0.05,1.06-0.05a11.007,11.007,0,0,1,11,11C1180.25,4902.93,1173.07,4913.11,1161,4919.1Zm8.25-35.6a1.375,1.375,0,1,0,0,2.75,5.51,5.51,0,0,1,5.5,5.5,1.375,1.375,0,0,0,2.75,0A8.258,8.258,0,0,0,1169.25,4883.5Z" transform="translate(-1139 -4878)"/>
</svg>
