<svg xmlns="http://www.w3.org/2000/svg" xmlns:xlink="http://www.w3.org/1999/xlink" width="54" height="44" viewBox="0 0 54 44">
  <metadata><?xpacket begin="﻿" id="W5M0MpCehiHzreSzNTczkc9d"?>
<x:xmpmeta xmlns:x="adobe:ns:meta/" x:xmptk="Adobe XMP Core 5.6-c142 79.160924, 2017/07/13-01:06:39        ">
   <rdf:RDF xmlns:rdf="http://www.w3.org/1999/02/22-rdf-syntax-ns#">
      <rdf:Description rdf:about=""/>
   </rdf:RDF>
</x:xmpmeta>
                                                                                                    
                                                                                                    
                                                                                                    
                                                                                                    
                                                                                                    
                                                                                                    
                                                                                                    
                                                                                                    
                                                                                                    
                                                                                                    
                                                                                                    
                                                                                                    
                                                                                                    
                                                                                                    
                                                                                                    
                                                                                                    
                                                                                                    
                                                                                                    
                                                                                                    
                                                                                                    
                           
<?xpacket end="w"?></metadata>
<defs>
    <style>
      .cls-1 {
        fill-rule: evenodd;
        filter: url(#filter);
      }
    </style>
    <filter id="filter" x="1333" y="4878" width="54" height="44" filterUnits="userSpaceOnUse">
      <feFlood result="flood" flood-color="#c7b299"/>
      <feComposite result="composite" operator="in" in2="SourceGraphic"/>
      <feBlend result="blend" in2="SourceGraphic"/>
    </filter>
  </defs>
  <path id="icon" class="cls-1" d="M1385.31,4918.61h-50.62a1.7,1.7,0,0,0,0,3.39h50.62A1.7,1.7,0,0,0,1385.31,4918.61Zm-23.62-33.84v-3.38h3.37a1.7,1.7,0,0,0,0-3.39h-10.12a1.7,1.7,0,0,0,0,3.39h3.37s-0.01,3.52,0,3.38a27.1,27.1,0,0,0-25.31,27.07v1.7a1.694,1.694,0,0,0,1.69,1.69h50.62a1.694,1.694,0,0,0,1.69-1.69v-1.7A27.1,27.1,0,0,0,1361.69,4884.77Zm-25.31,27.07a23.62,23.62,0,1,1,47.24,0h-47.24Z" transform="translate(-1333 -4878)"/>
</svg>
